<?xml version="1.0" encoding="utf-8"?>
<!-- Generator: Adobe Illustrator 24.0.1, SVG Export Plug-In . SVG Version: 6.00 Build 0)  -->
<svg version="1.1" id="Camada_1" xmlns="http://www.w3.org/2000/svg" xmlns:xlink="http://www.w3.org/1999/xlink" x="0px" y="0px"
	 viewBox="0 0 210.1 75" style="enable-background:new 0 0 210.1 75;" xml:space="preserve">
<style type="text/css">
	.st0{display:none;fill:#29292E;}
	.st1{fill:url(#SVGID_1_);}
	.st2{fill:url(#SVGID_2_);}
	.st3{fill:url(#SVGID_3_);}
	.st4{fill:none;stroke:url(#SVGID_4_);stroke-width:4.3008;}
	.st5{fill:#29292E;}
</style>
<path class="st0" d="M0,19h4.5v21.3H0V19z"/>
<path class="st0" d="M22.6,32.6c0,0.1,0,0.5-0.1,1.2H10.8c0.2,1,0.7,1.7,1.5,2.3c0.8,0.6,1.8,0.8,2.9,0.8c0.8,0,1.5-0.1,2.1-0.3
	c0.6-0.2,1.2-0.6,1.7-1.1l2.4,2.6c-1.5,1.7-3.6,2.5-6.4,2.5c-1.7,0-3.3-0.3-4.6-1c-1.3-0.7-2.4-1.6-3.1-2.8
	c-0.7-1.2-1.1-2.6-1.1-4.1c0-1.5,0.4-2.9,1.1-4.1c0.7-1.2,1.7-2.2,3-2.8c1.3-0.7,2.7-1,4.2-1c1.5,0,2.9,0.3,4.1,1
	c1.2,0.6,2.2,1.6,2.9,2.8C22.2,29.6,22.6,31,22.6,32.6z M14.6,28c-1,0-1.9,0.3-2.6,0.9c-0.7,0.6-1.1,1.4-1.3,2.4h7.6
	c-0.2-1-0.6-1.7-1.3-2.3C16.4,28.3,15.6,28,14.6,28z"/>
<path class="st0" d="M34.4,39.5c-0.4,0.3-1,0.6-1.6,0.7c-0.6,0.2-1.3,0.2-2,0.2c-1.8,0-3.3-0.5-4.3-1.4c-1-0.9-1.5-2.3-1.5-4.1v-6.3
	h-2.4v-3.4H25v-3.8h4.5v3.8h3.8v3.4h-3.8v6.3c0,0.6,0.2,1.2,0.5,1.5c0.3,0.3,0.8,0.5,1.4,0.5c0.7,0,1.3-0.2,1.8-0.6L34.4,39.5z"/>
<path class="st0" d="M55.5,24.6c1.9,0,3.5,0.6,4.6,1.7c1.1,1.1,1.7,2.8,1.7,5.1v8.8h-4.5v-8.1c0-1.2-0.3-2.1-0.8-2.7
	c-0.5-0.6-1.2-0.9-2.2-0.9c-1.1,0-1.9,0.3-2.5,1c-0.6,0.7-0.9,1.7-0.9,3v7.7h-4.5v-8.1c0-2.4-1-3.6-2.9-3.6c-1,0-1.9,0.3-2.5,1
	c-0.6,0.7-0.9,1.7-0.9,3v7.7h-4.5V24.8H40v1.8c0.6-0.6,1.3-1.1,2.1-1.5c0.8-0.3,1.8-0.5,2.8-0.5c1.1,0,2.1,0.2,3,0.7
	c0.9,0.4,1.6,1,2.1,1.9c0.6-0.8,1.4-1.4,2.4-1.9C53.3,24.8,54.3,24.6,55.5,24.6z"/>
<path class="st0" d="M79.9,32.6c0,0.1,0,0.5-0.1,1.2H68.2c0.2,1,0.7,1.7,1.5,2.3c0.8,0.6,1.8,0.8,2.9,0.8c0.8,0,1.5-0.1,2.1-0.3
	c0.6-0.2,1.2-0.6,1.7-1.1l2.4,2.6c-1.5,1.7-3.6,2.5-6.4,2.5c-1.7,0-3.3-0.3-4.6-1c-1.3-0.7-2.4-1.6-3.1-2.8
	c-0.7-1.2-1.1-2.6-1.1-4.1c0-1.5,0.4-2.9,1.1-4.1c0.7-1.2,1.7-2.2,3-2.8c1.3-0.7,2.7-1,4.2-1c1.5,0,2.9,0.3,4.1,1
	c1.2,0.6,2.2,1.6,2.9,2.8C79.6,29.6,79.9,31,79.9,32.6z M71.9,28c-1,0-1.9,0.3-2.6,0.9c-0.7,0.6-1.1,1.4-1.3,2.4h7.6
	c-0.2-1-0.6-1.7-1.3-2.3C73.8,28.3,72.9,28,71.9,28z"/>
<linearGradient id="SVGID_1_" gradientUnits="userSpaceOnUse" x1="17.9224" y1="58.676" x2="30.0015" y2="24.5645" gradientTransform="matrix(1 0 0 -1 0 76)">
	<stop  offset="0" style="stop-color:#485BFF"/>
	<stop  offset="1" style="stop-color:#FF59F8"/>
</linearGradient>
<path class="st1" d="M31.6,24.8l-3.1,15.4h-4.2l0.3-1.5c-1.3,1.2-2.9,1.7-4.7,1.7c-1.2,0-2.3-0.3-3.3-0.8c-1-0.6-1.8-1.3-2.4-2.4
	c-0.6-1.1-0.9-2.3-0.9-3.7c0-1.7,0.4-3.2,1.1-4.6c0.8-1.4,1.8-2.4,3.1-3.2c1.3-0.8,2.7-1.2,4.3-1.2c2.4,0,4,0.8,5,2.3l0.4-2.1H31.6z
	 M21.2,36.8c0.9,0,1.7-0.2,2.4-0.6c0.7-0.4,1.2-1,1.6-1.8c0.4-0.8,0.6-1.6,0.6-2.6c0-1.1-0.3-1.9-0.9-2.5c-0.6-0.6-1.5-0.9-2.6-0.9
	c-0.9,0-1.7,0.2-2.4,0.7c-0.7,0.4-1.2,1-1.6,1.8c-0.4,0.8-0.6,1.6-0.6,2.6c0,1.1,0.3,1.9,0.9,2.5C19.2,36.5,20.1,36.8,21.2,36.8z"/>
<linearGradient id="SVGID_2_" gradientUnits="userSpaceOnUse" x1="31.2276" y1="63.3874" x2="43.3067" y2="29.2759" gradientTransform="matrix(1 0 0 -1 0 76)">
	<stop  offset="0" style="stop-color:#485BFF"/>
	<stop  offset="1" style="stop-color:#FF59F8"/>
</linearGradient>
<path class="st2" d="M37.1,40.5c-1.3,0-2.6-0.1-3.8-0.4c-1.2-0.3-2.1-0.7-2.8-1.2l1.7-3.2c0.7,0.4,1.5,0.8,2.4,1.1
	c1,0.3,1.9,0.4,2.9,0.4c1,0,1.8-0.1,2.3-0.4c0.5-0.3,0.7-0.6,0.7-1.1c0-0.4-0.2-0.7-0.7-0.8c-0.4-0.2-1.1-0.4-2.1-0.5
	c-1.1-0.2-2-0.4-2.8-0.7c-0.7-0.2-1.3-0.6-1.9-1.2c-0.5-0.6-0.8-1.3-0.8-2.3c0-1.7,0.7-3,2.1-4c1.4-1,3.3-1.4,5.6-1.4
	c1.1,0,2.1,0.1,3.1,0.3s1.9,0.5,2.6,0.9l-1.6,3.3c-1.3-0.8-2.8-1.2-4.6-1.2c-1,0-1.7,0.1-2.2,0.4c-0.5,0.3-0.7,0.6-0.7,1.1
	c0,0.4,0.2,0.7,0.7,0.9c0.4,0.2,1.2,0.4,2.2,0.6c1.1,0.2,2,0.4,2.7,0.7c0.7,0.2,1.3,0.6,1.8,1.2s0.8,1.3,0.8,2.3c0,1.7-0.7,3-2.2,4
	C41.3,40,39.4,40.5,37.1,40.5z"/>
<linearGradient id="SVGID_3_" gradientUnits="userSpaceOnUse" x1="46.4194" y1="68.7669" x2="58.4985" y2="34.6554" gradientTransform="matrix(1 0 0 -1 0 76)">
	<stop  offset="0" style="stop-color:#485BFF"/>
	<stop  offset="1" style="stop-color:#FF59F8"/>
</linearGradient>
<path class="st3" d="M57.1,31.6l5.3,8.7h-5.2l-3.7-6l-2.7,2.3l-0.7,3.7h-4.5L49.9,19h4.5l-2.4,11.9l7.4-6h5.8L57.1,31.6z"/>
<linearGradient id="SVGID_4_" gradientUnits="userSpaceOnUse" x1="168.356" y1="80.1154" x2="228.5668" y2="5.5684" gradientTransform="matrix(-1 0 0 -1 235.2822 76)">
	<stop  offset="0" style="stop-color:#485BFF"/>
	<stop  offset="1" style="stop-color:#FF59F8"/>
</linearGradient>
<path class="st4" d="M75.7,48.9v2.9c0,3.2-2.6,5.7-5.7,5.7H32.7L17.4,71.6c-1,0.9-2.7,0-2.4-1.4l3.4-15.7h-10
	c-3.2,0-5.7-2.6-5.7-5.7V8.7C2.6,5.6,5.2,3,8.4,3H70c3.2,0,5.7,2.6,5.7,5.7v7.2"/>
<g>
	<path class="st5" d="M85.3,25.4c1.2,0.6,2.2,1.6,2.9,2.8c0.7,1.2,1,2.6,1,4.3c0,1.6-0.3,3-1,4.3c-0.7,1.2-1.7,2.1-2.9,2.8
		c-1.2,0.6-2.6,1-4.2,1s-2.9-0.3-4.2-1c-1.2-0.6-2.2-1.6-2.9-2.8c-0.7-1.2-1.1-2.6-1.1-4.3c0-1.6,0.4-3,1.1-4.3
		c0.7-1.2,1.7-2.1,2.9-2.8c1.2-0.6,2.6-1,4.2-1S84.1,24.8,85.3,25.4z M78.8,29.6c-0.6,0.7-0.9,1.6-0.9,2.9c0,1.2,0.3,2.2,0.9,2.9
		c0.6,0.7,1.4,1,2.3,1c0.9,0,1.7-0.3,2.3-1c0.6-0.7,0.9-1.6,0.9-2.9c0-1.3-0.3-2.2-0.9-2.9c-0.6-0.7-1.4-1-2.3-1
		C80.2,28.6,79.5,28.9,78.8,29.6z"/>
	<path class="st5" d="M98.8,25.3c0.9-0.6,2-0.8,3.1-0.8v5.1h-1.4c-1.3,0-2.3,0.3-3,0.8c-0.7,0.5-1,1.5-1,2.7v7.1h-4.8V24.6h4.8v2.9
		C97.1,26.6,97.9,25.9,98.8,25.3z"/>
	<path class="st5" d="M112.9,25.3c0.9,0.5,1.5,1.3,1.9,2.2v-2.8h4.8v15.5c0,1.5-0.3,2.8-0.8,3.9c-0.6,1.2-1.4,2.1-2.6,2.8
		c-1.2,0.7-2.6,1-4.3,1c-2.4,0-4.2-0.6-5.6-1.7c-1.4-1.1-2.3-2.6-2.5-4.5h4.7c0.1,0.6,0.5,1.1,1,1.5s1.2,0.5,2.1,0.5
		c1,0,1.8-0.3,2.4-0.9c0.6-0.6,0.9-1.5,0.9-2.7v-2.7c-0.4,0.9-1,1.7-1.9,2.2c-0.9,0.5-1.9,0.8-3.1,0.8c-1.3,0-2.4-0.3-3.5-1
		c-1-0.6-1.8-1.6-2.4-2.8c-0.6-1.2-0.9-2.6-0.9-4.3c0-1.6,0.3-3.1,0.9-4.3s1.4-2.1,2.4-2.8c1-0.6,2.2-1,3.5-1
		C111,24.5,112.1,24.7,112.9,25.3z M108.9,29.7c-0.6,0.7-0.9,1.6-0.9,2.8c0,1.2,0.3,2.1,0.9,2.8c0.6,0.7,1.5,1,2.5,1
		c1,0,1.8-0.3,2.5-1c0.6-0.7,1-1.6,1-2.8c0-1.2-0.3-2.1-1-2.8c-0.6-0.7-1.5-1-2.5-1C110.4,28.7,109.5,29,108.9,29.7z"/>
	<path class="st5" d="M131.9,25.3c0.9,0.5,1.5,1.3,1.9,2.2v-2.8h4.8v15.6h-4.8v-2.8c-0.4,0.9-1,1.7-1.9,2.2
		c-0.9,0.5-1.9,0.8-3.1,0.8c-1.3,0-2.4-0.3-3.5-1c-1-0.6-1.8-1.6-2.4-2.8c-0.6-1.2-0.9-2.6-0.9-4.3c0-1.6,0.3-3.1,0.9-4.3
		c0.6-1.2,1.4-2.1,2.4-2.8c1-0.6,2.2-1,3.5-1C130,24.5,131.1,24.7,131.9,25.3z M127.9,29.7c-0.6,0.7-0.9,1.6-0.9,2.8
		c0,1.2,0.3,2.1,0.9,2.8c0.6,0.7,1.5,1,2.5,1c1,0,1.8-0.3,2.5-1c0.6-0.7,1-1.6,1-2.8c0-1.2-0.3-2.1-1-2.8c-0.6-0.7-1.5-1-2.5-1
		C129.4,28.7,128.5,29,127.9,29.7z"/>
	<path class="st5" d="M156.1,26.3c1.1,1.2,1.6,2.8,1.6,4.9v9.1h-4.8v-8.5c0-1-0.3-1.9-0.8-2.5s-1.3-0.9-2.2-0.9
		c-1,0-1.7,0.3-2.3,0.9s-0.9,1.5-0.9,2.6v8.3h-4.8V24.6h4.8v2.9c0.4-0.9,1.1-1.7,2-2.2c0.9-0.5,1.9-0.8,3.1-0.8
		C153.6,24.5,155,25.1,156.1,26.3z"/>
	<path class="st5" d="M161.1,18.4c0.5-0.5,1.2-0.7,2.1-0.7s1.5,0.2,2.1,0.7c0.5,0.5,0.8,1.1,0.8,1.8c0,0.7-0.3,1.3-0.8,1.8
		c-0.5,0.5-1.2,0.7-2.1,0.7s-1.5-0.2-2.1-0.7c-0.5-0.5-0.8-1.1-0.8-1.8C160.4,19.5,160.6,18.9,161.1,18.4z M165.6,24.6v15.6h-4.8
		V24.6H165.6z"/>
	<path class="st5" d="M173.1,36.3h7.2v4h-12.5v-3.8l6.7-7.9H168v-4h12.1v3.8L173.1,36.3z"/>
	<path class="st5" d="M197.3,33.3h-10.8c0.1,1.2,0.4,2,0.9,2.5c0.5,0.5,1.2,0.8,2.1,0.8c0.7,0,1.3-0.2,1.8-0.5s0.8-0.8,0.9-1.4h5.1
		c-0.2,1.1-0.7,2.1-1.3,3c-0.7,0.9-1.6,1.6-2.6,2c-1.1,0.5-2.2,0.7-3.6,0.7c-1.5,0-2.9-0.3-4.1-1c-1.2-0.6-2.1-1.6-2.8-2.8
		c-0.7-1.2-1-2.6-1-4.3c0-1.6,0.3-3.1,1-4.3c0.7-1.2,1.6-2.1,2.8-2.8c1.2-0.6,2.6-1,4.1-1c1.5,0,2.9,0.3,4.1,1
		c1.2,0.6,2.1,1.5,2.7,2.7c0.6,1.1,1,2.5,1,4C197.5,32.4,197.4,32.9,197.3,33.3z M191.8,29c-0.6-0.5-1.3-0.8-2.1-0.8
		c-0.9,0-1.6,0.3-2.2,0.8c-0.6,0.5-0.9,1.3-1,2.3h6.1C192.6,30.3,192.4,29.5,191.8,29z"/>
	<path class="st5" d="M207.1,25.3c0.9-0.6,2-0.8,3.1-0.8v5.1h-1.4c-1.3,0-2.3,0.3-3,0.8c-0.7,0.5-1,1.5-1,2.7v7.1H200V24.6h4.8v2.9
		C205.3,26.6,206.1,25.9,207.1,25.3z"/>
</g>
</svg>
